<svg xmlns="http://www.w3.org/2000/svg" xmlns:xlink="http://www.w3.org/1999/xlink" width="15" height="15" viewBox="0 0 15 15"><defs><clipPath id="a"><rect width="15" height="15" transform="translate(360 970.03)" fill="#fff"/></clipPath></defs><g transform="translate(-360 -970.03)" clip-path="url(#a)"><path d="M7.107,11.756a.942.942,0,0,1-1.329,0L3.63,9.609A.94.94,0,1,1,4.959,8.28L6.442,9.763l3.63-3.63A.94.94,0,1,1,11.4,7.461ZM0,3.576A2.147,2.147,0,0,1,2.147,1.429H12.884a2.148,2.148,0,0,1,2.147,2.147V14.313a2.149,2.149,0,0,1-2.147,2.147H2.147A2.148,2.148,0,0,1,0,14.313Zm1.611,0V14.313a.538.538,0,0,0,.537.537H12.884a.538.538,0,0,0,.537-.537V3.576a.538.538,0,0,0-.537-.537H2.147A.537.537,0,0,0,1.611,3.576Z" transform="translate(360 968.569)"/></g></svg>