<svg xmlns="http://www.w3.org/2000/svg" xmlns:xlink="http://www.w3.org/1999/xlink" width="110" height="60" viewBox="0 0 110 60"><defs><clipPath id="a"><rect width="110" height="60" transform="translate(110 4990.333)" fill="#707070"/></clipPath></defs><g transform="translate(-119 -5273)"><g transform="translate(9 282.667)" clip-path="url(#a)"><g transform="translate(121.49 4994.051)"><path d="M9.673,4.84H0L.645.722H25.686L25.041,4.84H15.368L8.436,51.28h-5.7Z" transform="translate(0 -0.146)" fill="#151000"/><path d="M29.987,34.3h5.428C32.781,43.7,35.2,48.05,41,48.05c5.1,0,9.082-2.673,9.834-9.472,1.45-13.445-18.808-6.875-17.25-25.972C34.286,4.278,39.929,0,47.612,0c9.619,0,14.026,5.041,10.532,15.889H53.039c2.525-8.555.216-12.223-5.266-12.223-4.245,0-7.9,2.673-8.49,8.327-1.45,13.215,19.507,6.952,17.3,25.972-1.129,9.7-6.61,13.826-15.422,13.826-10.21,0-14.885-5.5-11.177-17.494Z" transform="translate(-2.818)" fill="#151000"/><path d="M77.616.722H99.54L98.9,4.84H82.668L79.927,23.294H92.716l-.591,3.889H79.336l-3.6,24.1h-5.7Z" transform="translate(-8.948 -0.146)" fill="#151000"/><g transform="translate(15.365 0.576)"><rect width="9.021" height="4.146" transform="translate(0.65)" fill="#fe0000"/><path d="M31.227,4.867,30.577.722h1.3Z" transform="translate(-21.556 -0.722)" fill="#fe0000"/><path d="M19.918.722l-.65,4.146h1.3Z" transform="translate(-19.268 -0.722)" fill="#fe0000"/></g></g></g></g></svg>