<svg xmlns="http://www.w3.org/2000/svg" xmlns:xlink="http://www.w3.org/1999/xlink" width="20" height="20" viewBox="0 0 20 20">
  <defs>
    <clipPath id="clip-path">
      <rect id="長方形_80" data-name="長方形 80" width="20" height="20" transform="translate(869.312 29)" fill="#fff"/>
    </clipPath>
  </defs>
  <g id="マスクグループ_10" data-name="マスクグループ 10" transform="translate(-869.312 -29)" clip-path="url(#clip-path)">
    <path id="line" d="M11.858,7.5v3.1a.138.138,0,0,1-.141.141h-.5a.146.146,0,0,1-.114-.057L9.685,8.77v1.838a.138.138,0,0,1-.141.141h-.5a.138.138,0,0,1-.141-.141v-3.1a.138.138,0,0,1,.141-.141H9.54a.139.139,0,0,1,.114.061l1.422,1.918V7.508a.138.138,0,0,1,.141-.141h.5a.138.138,0,0,1,.145.133ZM8.286,7.363h-.5a.138.138,0,0,0-.141.141v3.1a.138.138,0,0,0,.141.141h.5a.138.138,0,0,0,.141-.141V7.5A.143.143,0,0,0,8.286,7.363Zm-1.2,2.6H5.731V7.5a.138.138,0,0,0-.141-.141h-.5a.138.138,0,0,0-.141.141v3.1a.126.126,0,0,0,.038.1.143.143,0,0,0,.1.038h1.99a.138.138,0,0,0,.141-.141v-.5a.142.142,0,0,0-.133-.141Zm7.386-2.6H12.48a.143.143,0,0,0-.141.141v3.1a.143.143,0,0,0,.141.141h1.99a.138.138,0,0,0,.141-.141v-.5a.138.138,0,0,0-.141-.141H13.117V9.445H14.47a.138.138,0,0,0,.141-.141V8.8a.138.138,0,0,0-.141-.141H13.117V8.141H14.47A.138.138,0,0,0,14.611,8V7.5a.149.149,0,0,0-.141-.141Zm5.048-3.8v12.43a3.552,3.552,0,0,1-3.561,3.531H3.531A3.554,3.554,0,0,1,0,15.961V3.531A3.554,3.554,0,0,1,3.561,0h12.43A3.552,3.552,0,0,1,19.523,3.561ZM16.838,8.9c0-3.18-3.191-5.769-7.107-5.769S2.623,5.723,2.623,8.9c0,2.848,2.528,5.239,5.944,5.693.831.179.736.484.549,1.605-.031.179-.145.7.614.385a22.933,22.933,0,0,0,5.586-4.126,5.144,5.144,0,0,0,1.521-3.55Z" transform="translate(869.914 29.875)" fill="#fff"/>
  </g>
</svg>
