<svg xmlns="http://www.w3.org/2000/svg" xmlns:xlink="http://www.w3.org/1999/xlink" width="70" height="70" viewBox="0 0 70 70"><defs><clipPath id="a"><rect width="70" height="70" transform="translate(790 1440)" fill="#9f9f9f"/></clipPath></defs><g transform="translate(-640 -1750)"><g transform="translate(-150 310)" clip-path="url(#a)"><g transform="translate(810.689 1447.385)"><path d="M53.706,0H35.444a5.673,5.673,0,0,0-5.666,5.666V48.949a5.673,5.673,0,0,0,5.666,5.666H53.706a5.673,5.673,0,0,0,5.666-5.666V5.666A5.673,5.673,0,0,0,53.706,0ZM44.575,51.268a2.3,2.3,0,1,1,2.3-2.3A2.3,2.3,0,0,1,44.575,51.268ZM56.018,7.176V43.46H33.132V7.176Z" transform="translate(-29.777 0)" fill="#1e5692"/></g></g></g></svg>