<svg xmlns="http://www.w3.org/2000/svg" xmlns:xlink="http://www.w3.org/1999/xlink" width="75" height="70" viewBox="0 0 75 70"><defs><clipPath id="a"><rect width="75" height="70" transform="translate(360 1720)" fill="#fff" stroke="#707070" stroke-width="1"/></clipPath></defs><g transform="translate(-300 -1740)"><g transform="translate(-60 20)" clip-path="url(#a)"><g transform="translate(370 1729.846)"><path d="M0,0V36.871H55.038V0ZM49.7,31.526H5.343V5.345H49.694V31.526Z" fill="#1e5692"/><path d="M59.091,101.883H49.6s0,6.453-5.883,6.453v4.411H64.975v-4.411c-5.883,0-5.883-6.453-5.883-6.453Z" transform="translate(-26.825 -62.519)" fill="#1e5692"/><path d="M60.2,46.916a.22.22,0,0,0,.218,0l9.322-5.563a.224.224,0,0,0,.1-.188.219.219,0,0,0-.1-.188l-9.322-5.566a.22.22,0,0,0-.218,0,.21.21,0,0,0-.111.19V46.729a.213.213,0,0,0,.111.188Z" transform="translate(-36.872 -21.711)" fill="#1e5692"/></g></g></g></svg>