<svg xmlns="http://www.w3.org/2000/svg" xmlns:xlink="http://www.w3.org/1999/xlink" width="70" height="70" viewBox="0 0 70 70"><defs><clipPath id="a"><rect width="70" height="70" transform="translate(220 1440)" fill="#9f9f9f"/></clipPath></defs><g transform="translate(-128 -1554)"><g transform="translate(-92 114)" clip-path="url(#a)"><g transform="translate(231.84 1449.1)"><path d="M44.848,0,42.354,9.663H3.3L10.57,34.876H35.847l-.911,3.531H12.34v3.717H37.815L47.727,3.717h6.738V0ZM32.164,31.159V24.036h6.481l-1.838,7.124ZM41.395,13.38,39.6,20.319H32.164V13.38ZM28.447,24.036v7.124H21.112V24.036Zm0-10.656v6.939H21.112V13.38Zm-11.052,0v6.939H10.243l-2-6.939Zm0,10.656v7.124H13.367l-2.053-7.124Z" transform="translate(-3.304)" fill="#1e5692"/><path d="M26.6,105.381a5,5,0,1,0,5,5A5,5,0,0,0,26.6,105.381Zm0,6.281a1.282,1.282,0,1,1,1.282-1.282A1.284,1.284,0,0,1,26.6,111.662Z" transform="translate(-14.016 -61.688)" fill="#1e5692"/><path d="M69.017,105.885a5,5,0,1,0,5,5A5,5,0,0,0,69.017,105.885Zm0,6.282a1.282,1.282,0,1,1,1.282-1.282A1.283,1.283,0,0,1,69.017,112.167Z" transform="translate(-38.845 -61.983)" fill="#1e5692"/></g></g></g></svg>