<svg xmlns="http://www.w3.org/2000/svg" xmlns:xlink="http://www.w3.org/1999/xlink" width="187" height="130" viewBox="0 0 187 130"><defs><clipPath id="a"><rect width="90" height="130" transform="translate(820 2670)" fill="#fff" stroke="#707070" stroke-width="1"/></clipPath><clipPath id="b"><rect width="90" height="130" transform="translate(920 2670)" fill="#fff" stroke="#707070" stroke-width="1"/></clipPath></defs><g transform="translate(-440 -2670)"><g transform="translate(-380)" clip-path="url(#a)"><g transform="translate(819.973 2676.708)"><path d="M8.257,65.763l6.789,33.305s3.1,6.069,8.529,4.155c0,0,4.031-.793,5.211-5.993l4.92-10.662.365,29.863,34.045.042-.012-18.4,1.128-1.886s9.547,17.953,16.344,13.531c5.2-3.379,3.894-8.086,3.211-10.213s-8.768-24.329-8.768-24.329l5.508-10.121L62.47,52.63,61.9,53.846,57.225,51.2l-.356-6.171s7.442-4.891,8.352-9.982c0,0,4.214-.146,5.375-3.707,0,0,1.5-5.361-3.026-7.176s-23.65-8.733-23.65-8.733L32.577,24.957S27.715,33.085,36.9,35.32c0,0,2.856,7.009,8.529,10.16l-.148,5.6L27.406,62.848l-5.939,9.161L17.63,60.479,8.257,65.762Z" fill="#fff"/><path d="M40.645,9.313s-8.334.813-6.783,14.036l2.093.826,2.212-.353s6.222-3.981,5.9-7.932a11.763,11.763,0,0,0,7.461,7.756s8.158,2,13.506.236l3.686-.147s2-15.815-11.943-18.43c0,0-8.638-2.964-14.213,1.946L40.644,9.315Z" fill="#4e4516"/><path d="M8.826,66.55l9.292-4.757-.442-1.77,1.917-5.42-.037-4.019.738-4.166s1.229-4.506-2.977-2l-2.186,5.69-1.475-2.544L9.637,35.283s-3-5.083-3.982.959l3.613,9.845S6.957,45.24,6.7,48.177c-.072.833-1.933-2.9-3.113,1.228L1.12,50.918.53,53.647l3.429,6.121L6.577,63.05l2.249,3.5Z" fill="#fff"/><path d="M30.051,76.11,32.3,80.825" fill="none" stroke="#040000" stroke-linecap="round" stroke-linejoin="round" stroke-width="1.248"/><path d="M33.769,74.425s0,38.4,0,41.69" fill="none" stroke="#040000" stroke-linecap="round" stroke-linejoin="round" stroke-width="1.248"/><line x1="0.298" y2="5.212" transform="translate(45.14 45.567)" fill="none" stroke="#040000" stroke-linecap="round" stroke-linejoin="round" stroke-width="1.248"/><path d="M35.764,24.381a20.954,20.954,0,0,0-.146,2.468c0,9.876,6.723,19.379,15.221,19.379s15.553-9.5,15.553-19.379a20.913,20.913,0,0,0-.145-2.465" fill="none" stroke="#040000" stroke-linecap="round" stroke-linejoin="round" stroke-width="1.248"/><path d="M35.591,24.284a2.982,2.982,0,0,0-2.992.24c-1.252.877-1.579,2.659-1.471,4.261a6.469,6.469,0,0,0,5.721,6.164" fill="none" stroke="#040000" stroke-linecap="round" stroke-linejoin="round" stroke-width="1.248"/><path d="M66.388,24.284a2.982,2.982,0,0,1,2.992.24c1.252.877,1.579,2.659,1.471,4.261a6.469,6.469,0,0,1-5.721,6.164" fill="none" stroke="#040000" stroke-linecap="round" stroke-linejoin="round" stroke-width="1.248"/><path d="M51.4,30.263a4.874,4.874,0,0,1-1.039,3.688" fill="none" stroke="#040000" stroke-linecap="round" stroke-linejoin="round" stroke-width="1.248"/><path d="M46.932,38.12h8.114s-.06,3.5-4.057,3.472A3.9,3.9,0,0,1,46.932,38.12Z" fill="none" stroke="#040000" stroke-linecap="round" stroke-linejoin="round" stroke-width="1.248"/><path d="M43.855,51.36c-4.284,2.49-14.359,8.632-16.665,11.3" fill="none" stroke="#040000" stroke-linecap="round" stroke-linejoin="round" stroke-width="1.248"/><path d="M56.837,50.78s1.513.733,3.648,1.774c.031.015.548.276,1.361.693" fill="none" stroke="#040000" stroke-linecap="round" stroke-linejoin="round" stroke-width="1.248"/><path d="M45.438,45.567l-.3,5.213s-.215.111-.6.315" fill="none" stroke="#040000" stroke-linecap="round" stroke-linejoin="round" stroke-width="1.248"/><line x2="0.298" y2="5.212" transform="translate(56.539 45.567)" fill="none" stroke="#040000" stroke-linecap="round" stroke-linejoin="round" stroke-width="1.248"/><path d="M33.542,85.625c-2.045,4.683-3.235,8.027-5.281,12.711" fill="none" stroke="#040000" stroke-linecap="round" stroke-linejoin="round" stroke-width="1.248"/><path d="M43.851,14.882c-.05,4.181-2.851,8.151-6.444,9.13" fill="none" stroke="#040000" stroke-linecap="round" stroke-linejoin="round" stroke-width="1.248"/><path d="M60.552,16.464a9.177,9.177,0,0,0,5.406,7.818" fill="none" stroke="#040000" stroke-linecap="round" stroke-linejoin="round" stroke-width="1.248"/><path d="M55.854,15.965a9.764,9.764,0,0,0,5.739,8.317" fill="none" stroke="#040000" stroke-linecap="round" stroke-linejoin="round" stroke-width="1.248"/><path d="M50.91,15.61a10.439,10.439,0,0,0,5.63,8.727" fill="none" stroke="#040000" stroke-linecap="round" stroke-linejoin="round" stroke-width="1.248"/><path d="M43.97,14.789c.8,4.41,3.884,8.1,7.569,9.048" fill="none" stroke="#040000" stroke-linecap="round" stroke-linejoin="round" stroke-width="1.248"/><path d="M40.629,9.313C45.265.94,70.4,2.055,68.924,23.71" fill="none" stroke="#040000" stroke-linecap="round" stroke-linejoin="round" stroke-width="1.248"/><path d="M40.629,9.313c-4.227.272-8.539,6.3-6.755,14.525" fill="none" stroke="#040000" stroke-linecap="round" stroke-linejoin="round" stroke-width="1.248"/><path d="M69.082,95.868l-1.946,3.724-22.7-11.87,4.833-9.2" fill="none" stroke="#040000" stroke-linecap="round" stroke-linejoin="round" stroke-width="1.248"/><line x1="10.364" y2="19.822" transform="translate(75.154 64.433)" fill="none" stroke="#040000" stroke-linecap="round" stroke-linejoin="round" stroke-width="1.248"/><line x2="22.989" y2="12.118" transform="translate(62.529 52.314)" fill="none" stroke="#040000" stroke-linecap="round" stroke-linejoin="round" stroke-width="1.248"/><line y1="12.68" x2="6.216" transform="translate(56.313 52.314)" fill="none" stroke="#040000" stroke-linecap="round" stroke-linejoin="round" stroke-width="1.248"/><path d="M53.245,66.023a5.46,5.46,0,0,1,5.978.146c4.262,2.738,7.642,10.914,7.642,10.914" fill="none" stroke="#040000" stroke-linecap="round" stroke-linejoin="round" stroke-width="1.248"/><path d="M51.642,67.658c-2.415,2.343-7.308,9.72-3.672,12.765" fill="none" stroke="#040000" stroke-linecap="round" stroke-linejoin="round" stroke-width="1.248"/><path d="M49.467,78.427a5.961,5.961,0,0,0,2.017-.316" fill="none" stroke="#040000" stroke-linecap="round" stroke-linejoin="round" stroke-width="1.248"/><path d="M51.717,78.172A8.87,8.87,0,0,0,55.433,83.2a10.283,10.283,0,0,0,5.549,1.64" fill="none" stroke="#040000" stroke-linecap="round" stroke-linejoin="round" stroke-width="1.248"/><path d="M47.737,75.346a8.822,8.822,0,0,1,4.926-.039" fill="none" stroke="#040000" stroke-linecap="round" stroke-linejoin="round" stroke-width="1.248"/><path d="M50.417,69.231a15.928,15.928,0,0,1,6.432.413" fill="none" stroke="#040000" stroke-linecap="round" stroke-linejoin="round" stroke-width="1.248"/><path d="M48.886,72.287a11.135,11.135,0,0,1,5.37.112" fill="none" stroke="#040000" stroke-linecap="round" stroke-linejoin="round" stroke-width="1.248"/><path d="M57.91,65.487a2.719,2.719,0,0,1,4.12.348A8.056,8.056,0,0,1,63.6,70.993" fill="none" stroke="#040000" stroke-linecap="round" stroke-linejoin="round" stroke-width="1.248"/><path d="M61.593,84.843S71.3,99.807,77.074,106.819c2.552,3.1,6.815,4.73,10.409.879,3.9-4.184.787-9.58-.842-11.515-4.007-4.763-19.777-19.1-19.777-19.1" fill="none" stroke="#040000" stroke-linecap="round" stroke-linejoin="round" stroke-width="1.248"/><path d="M80.043,75.176c2.748,6.472,7.277,17.759,8.452,23.844" fill="none" stroke="#040000" stroke-linecap="round" stroke-linejoin="round" stroke-width="1.248"/><line x1="4.491" y2="6.631" transform="translate(21.489 64.541)" fill="none" stroke="#040000" stroke-linecap="round" stroke-linejoin="round" stroke-width="1.248"/><line x2="7.03" y2="10.575" transform="translate(43.881 51.36)" fill="none" stroke="#040000" stroke-linecap="round" stroke-linejoin="round" stroke-width="1.248"/><line x2="8.776" y2="12.869" transform="translate(42.135 52.381)" fill="none" stroke="#040000" stroke-linecap="round" stroke-linejoin="round" stroke-width="1.248"/><line x1="6.859" y2="10.426" transform="translate(50.94 51.434)" fill="none" stroke="#040000" stroke-linecap="round" stroke-linejoin="round" stroke-width="1.248"/><line x1="8.376" y2="12.794" transform="translate(50.989 52.456)" fill="none" stroke="#040000" stroke-linecap="round" stroke-linejoin="round" stroke-width="1.248"/><rect width="12.004" height="2.964" transform="matrix(0.884, 0.467, -0.467, 0.884, 69.396, 55.102)" fill="#fffa83" stroke="#040000" stroke-linecap="round" stroke-linejoin="round" stroke-width="1.248"/><line x1="34.248" y2="0.234" transform="translate(33.874 115.955)" fill="none" stroke="#040000" stroke-linecap="round" stroke-linejoin="round" stroke-width="1.248"/><path d="M68.061,98.063s0,15.627,0,17.892" fill="none" stroke="#040000" stroke-linecap="round" stroke-linejoin="round" stroke-width="1.248"/><line x2="0.138" y2="23.765" transform="translate(51.469 91.838)" fill="none" stroke="#040000" stroke-linecap="round" stroke-linejoin="round" stroke-width="1.248"/><path d="M8.347,65.4l6.2,31.92a7.312,7.312,0,0,0,8.971,5.485A7.618,7.618,0,0,0,28.425,93.2L17.655,60.048" fill="none" stroke="#040000" stroke-linecap="round" stroke-linejoin="round" stroke-width="1.248"/><line x2="8.632" y2="7.279" transform="translate(24.268 80.039)" fill="none" stroke="#040000" stroke-linecap="round" stroke-linejoin="round" stroke-width="1.248"/><line x1="6.488" y2="4.99" transform="translate(75.476 80.039)" fill="none" stroke="#040000" stroke-linecap="round" stroke-linejoin="round" stroke-width="1.248"/><rect width="7.464" height="12.476" transform="translate(33.979 101.255)" fill="#fffa83" stroke="#040000" stroke-linecap="round" stroke-linejoin="round" stroke-width="1.248"/><rect width="7.464" height="12.476" transform="translate(60.552 101.255)" fill="#fffa83" stroke="#040000" stroke-linecap="round" stroke-linejoin="round" stroke-width="1.248"/><circle cx="1.226" cy="1.226" r="1.226" transform="translate(33.692 59.1)" fill="#fffa83" stroke="#040000" stroke-linecap="round" stroke-linejoin="round" stroke-width="1.248"/><circle cx="1.226" cy="1.226" r="1.226" transform="translate(38.671 55.906)" fill="#fffa83" stroke="#040000" stroke-linecap="round" stroke-linejoin="round" stroke-width="1.248"/><line x2="3.717" y2="11.45" transform="translate(9.383 34.091)" fill="none" stroke="#040000" stroke-linecap="round" stroke-linejoin="round" stroke-width="1.248"/><path d="M10.112,46.852a1.818,1.818,0,0,0-2.226-1.3A1.764,1.764,0,0,0,6.77,47.7a1.479,1.479,0,0,0-2.149-.258,1.987,1.987,0,0,0-.694,2.215c-.972-.917-3.265.482-2.482,2.436" fill="none" stroke="#040000" stroke-linecap="round" stroke-linejoin="round" stroke-width="1.248"/><line x2="3.241" y2="10.165" transform="translate(5.951 35.184)" fill="none" stroke="#040000" stroke-linecap="round" stroke-linejoin="round" stroke-width="1.248"/><path d="M9.383,34.091a1.8,1.8,0,0,0-2.251-1.114,1.784,1.784,0,0,0-1.162,2.21" fill="none" stroke="#040000" stroke-linecap="round" stroke-linejoin="round" stroke-width="1.248"/><path d="M10.117,46.854l1.245,4.8c.168.691-.033,1.525-.694,1.707A1.65,1.65,0,0,1,8.69,52.047l-1.924-4.33" fill="none" stroke="#040000" stroke-linecap="round" stroke-linejoin="round" stroke-width="1.248"/><path d="M6.706,47.687l2.177,5.144c.22.724.523,1.834-.648,2.405A1.722,1.722,0,0,1,6.076,54.11l-2.24-4.7" fill="none" stroke="#040000" stroke-linecap="round" stroke-linejoin="round" stroke-width="1.248"/><path d="M4.077,49.921l1.451,3.1a1.519,1.519,0,0,1-.26,2.078c-1,.63-1.973-.5-2.368-.941L1.5,51.972" fill="none" stroke="#040000" stroke-linecap="round" stroke-linejoin="round" stroke-width="1.248"/><path d="M2.939,54.143a2.085,2.085,0,0,1-1.913-.368c-.827-.937-.191-1.99.255-2.932" fill="none" stroke="#040000" stroke-linecap="round" stroke-linejoin="round" stroke-width="1.248"/><path d="M1.558,54.438c.907,2.625,3.6,7.826,6.1,9.036" fill="none" stroke="#040000" stroke-linecap="round" stroke-linejoin="round" stroke-width="1.248"/><path d="M13.653,47.179a9.5,9.5,0,0,1,1.424,3.609" fill="none" stroke="#040000" stroke-linecap="round" stroke-linejoin="round" stroke-width="1.248"/><path d="M15.233,50.829a31.857,31.857,0,0,1,1.26-4.817c.348-.988,1.112-2.981,3.1-2.863,2.052.7.858,1.9.14,5.43-.511,2.512.388,4.569-.562,6.942a27.684,27.684,0,0,1-1.563,4.357" fill="none" stroke="#040000" stroke-linecap="round" stroke-linejoin="round" stroke-width="1.248"/><circle cx="1.04" cy="1.04" r="1.04" transform="translate(43.945 28.712)"/><circle cx="1.04" cy="1.04" r="1.04" transform="translate(56.088 28.712)"/><line x2="3.049" y2="5.043" transform="translate(30.776 0.624)" fill="none" stroke="#231815" stroke-linecap="round" stroke-miterlimit="10" stroke-width="1.248"/><line x2="4.59" y2="3.696" transform="translate(26.695 4.19)" fill="none" stroke="#231815" stroke-linecap="round" stroke-miterlimit="10" stroke-width="1.248"/><line x2="5.577" y2="1.904" transform="translate(24.08 8.937)" fill="none" stroke="#231815" stroke-linecap="round" stroke-miterlimit="10" stroke-width="1.248"/></g></g><g transform="translate(-383)" clip-path="url(#b)"><g transform="translate(927.98 2673.145)"><g transform="translate(7.058 9.196)"><g transform="translate(0.066 0)"><path d="M28.741,13.511,25.2,21.957,24.77,35.5l-.194,15.335.389,3.152,1.752,4.282,1.012.779-7.162,5.1-1.722,1.575L16.2,70.639,11.4,89.55,7.657,107.036s-.9,11.193,11.464,7.626c3.758-1.084,5.931-1.943,5.931-1.943l.1,4.087,37.681-.249.1-10.118,4.236,4.935s12.232,4.208,9.969-10.717-5.831-32.348-5.831-32.348l-3.1-3.668-8.7-6.006,2.074-3.777s.031-12.878-.124-13.186.387-5.417.387-5.417l2.507-2.29s3.011-7.257-1.981-8.2l-1.022.031s2.026-10.186-4.829-14.146l-1.1.028S53.4,5.364,42.842,6.345A18.5,18.5,0,0,0,35.1,8.256a26.343,26.343,0,0,0-6.362,5.256Z" transform="translate(-7.627 -6.241)" fill="#fff"/><path d="M57.483,11.476S56.167,5.489,44.089,6.49c0,0-10.256-1.059-15.807,12.386l-1.437,4.79-.274,28.467s-.073,6.775,4.722,8.006,6.159,1.027,6.159,1.027l5.406-2.532L37.932,57.4l-2.053-2.4,3.9-2.121.547-5.2-3.353-2.464L33.826,42l.479-17.313s2.415-8.28,6.843-10.2c0,0,7.11-3.5,12.356,1.021l2.939,5.948s3.028,4.962,5.282,4.653l1.749-.769-.49-7.487-2.1-3.779-3.4-2.607Z" transform="translate(-9.511 -6.255)"/><path d="M66.188,45.2l-3.032-1.946s-6.961,8.694-9.232,8.508l.95,5.158,9.232,5.158,2.218-4.027L66.188,45.2Z" transform="translate(-12.233 -9.925)"/><path d="M34.362,60.355s-14.817,7.6-16.767,12.369l-1.339,3.634L7.641,112.222s-1.1,13.414,14.8,6.85l2.9-1.009-.1,3.815,37.069.223.291-10.743s5.366,11.3,13.58,3.889c0,0,2.614-3.269.892-9.627L71.4,72.914,53.3,60.227s-5.505,1.975-8.99,2.1l-9.946-1.976Z" transform="translate(-7.625 -11.615)" fill="#fffa83"/><path d="M44.477,71.65,39.4,79.07s-3.22,8.53,5.136,7.817c0,0,5.554,4.641,8.543,4.527l6.312-7.2-3.165-8.571s1.091-5.706-4.124-5.706l-3.309.383-2.253.432-2.069.9Z" transform="translate(-10.727 -12.581)" fill="#fff"/><path d="M31.593,103.656a19.071,19.071,0,0,0-3.25,4.661c-.681,1.9,4.108,8.646,4.108,8.646a13.545,13.545,0,0,0,6.622-.368L51.461,109.6a1.865,1.865,0,0,0,.368-2.7s2.78-1.4,1.4-3.823a2.341,2.341,0,0,0-1.334-2.8s.4-4.237-4.354-1.41l-9.076,4.047-1.9-.368-.368-4.108s-3.363-8.018-4.026-.812l.163,3.878-.735,2.146Z" transform="translate(-9.681 -15.039)" fill="#fff"/></g><g transform="translate(0 0.062)"><g transform="translate(24.101 19.404)"><path d="M34.316,43.311a13.451,13.451,0,0,0,4.06,4.805,15.969,15.969,0,0,0,8.463,2.966c8.861,0,16.217-9.909,16.217-20.207a16.986,16.986,0,0,0-.206-2.654" transform="translate(-34.316 -27.896)" fill="none" stroke="#000" stroke-linecap="round" stroke-linejoin="round" stroke-width="1.445"/><path d="M66.083,28.166a3.109,3.109,0,0,1,3.119.251c1.305.914,1.646,2.773,1.534,4.442a6.745,6.745,0,0,1-5.965,6.427" transform="translate(-37.348 -27.86)" fill="none" stroke="#000" stroke-linecap="round" stroke-linejoin="round" stroke-width="1.445"/></g><g transform="translate(28.871 24.296)"><circle cx="1.084" cy="1.084" r="1.084"/><circle cx="1.084" cy="1.084" r="1.084" transform="translate(12.709)"/><path d="M48.229,35.123a5.083,5.083,0,0,1-1.083,3.845" transform="translate(-40.363 -33.475)" fill="none" stroke="#000" stroke-linecap="round" stroke-linejoin="round" stroke-width="1.445"/></g><path d="M43.177,44.221h8.46s-.062,3.654-4.23,3.621a4.072,4.072,0,0,1-4.23-3.621Z" transform="translate(-11.097 -10.084)" fill="none" stroke="#000" stroke-linecap="round" stroke-linejoin="round" stroke-width="1.445"/><path d="M28.392,64.93c-4.353,2.786-8.695,6.086-9.979,8.821" transform="translate(-8.632 -12.145)" fill="none" stroke="#000" stroke-linecap="round" stroke-linejoin="round" stroke-width="1.445"/><path d="M40.74,58.335s-1.309.65-3.269,1.717" transform="translate(-10.529 -11.489)" fill="none" stroke="#000" stroke-linecap="round" stroke-linejoin="round" stroke-width="1.445"/><line x1="0.31" y2="5.436" transform="translate(30.211 41.41)" fill="none" stroke="#000" stroke-linecap="round" stroke-linejoin="round" stroke-width="1.445"/><path d="M54.3,52.3l.31,5.436S75.435,68.707,76.258,73.882" transform="translate(-12.205 -10.888)" fill="none" stroke="#000" stroke-linecap="round" stroke-linejoin="round" stroke-width="1.445"/><line x2="37.384" y2="0.072" transform="translate(17.506 110.524)" fill="none" stroke="#000" stroke-linecap="round" stroke-linejoin="round" stroke-width="1.445"/><g transform="translate(19.637 79.904)"><line y1="4.831" x2="10.387" transform="translate(9.163 3.198)" fill="none" stroke="#000" stroke-linecap="round" stroke-linejoin="round" stroke-width="1.445"/><line y1="4.971" x2="10.365" transform="translate(11.082 5.639)" fill="none" stroke="#000" stroke-linecap="round" stroke-linejoin="round" stroke-width="1.445"/><line y1="4.798" x2="9.841" transform="translate(13.023 8.33)" fill="none" stroke="#000" stroke-linecap="round" stroke-linejoin="round" stroke-width="1.445"/><line y1="4.151" x2="7.627" transform="translate(15.284 11.288)" fill="none" stroke="#000" stroke-linecap="round" stroke-linejoin="round" stroke-width="1.445"/><path d="M51.07,98.552c.978-.435,1.886-.677,2.471.01a1.5,1.5,0,0,1-.407,2.359,1.471,1.471,0,0,1,1.924.728,1.657,1.657,0,0,1-.674,2.035,1.18,1.18,0,0,1,1.428.5c.515.865-.1,1.777-1.325,2.427" transform="translate(-31.52 -95.354)" fill="none" stroke="#000" stroke-linecap="round" stroke-linejoin="round" stroke-width="1.445"/><path d="M29.359,106.6a11.342,11.342,0,0,1,2.186-2.867c.55-1.665,1.291-4.08,1-5.993a3.01,3.01,0,0,1,.18-2.181,1.34,1.34,0,0,1,1.551-.419,2.426,2.426,0,0,1,1.25,1.246,6.305,6.305,0,0,1,.5,1.794,16.834,16.834,0,0,1,.256,4.2,18.4,18.4,0,0,0,1.962.627" transform="translate(-29.359 -95.047)" fill="none" stroke="#000" stroke-linecap="round" stroke-linejoin="round" stroke-width="1.445"/><path d="M50.764,108.791a.992.992,0,0,1,1.567.274,1.514,1.514,0,0,1-.249,1.656,4.05,4.05,0,0,1-1.287,1.019l-3.826,2.249C43.2,116.2,40,119.272,34.42,118.251" transform="translate(-29.863 -96.389)" fill="none" stroke="#000" stroke-linecap="round" stroke-linejoin="round" stroke-width="1.445"/></g><g transform="translate(27.783 57.368)"><path d="M46.7,70.976a5.693,5.693,0,0,1,6.207.587c4.234,3.158,7.155,11.908,7.155,11.908" transform="translate(-39.232 -70.049)" fill="none" stroke="#000" stroke-linecap="round" stroke-linejoin="round" stroke-width="1.445"/><path d="M44.091,72.808c-2.682,2.262-8.067,9.857-4.506,13.289,1.936,1.866,3.945,1.275,4.468.781" transform="translate(-38.406 -70.297)" fill="none" stroke="#000" stroke-linecap="round" stroke-linejoin="round" stroke-width="1.445"/><path d="M41.339,85.053a6.219,6.219,0,0,0,2.12-.182" transform="translate(-38.698 -71.498)" fill="none" stroke="#000" stroke-linecap="round" stroke-linejoin="round" stroke-width="1.445"/><path d="M43.959,84.96a9.246,9.246,0,0,0,3.5,5.5,10.719,10.719,0,0,0,5.654,2.109" transform="translate(-38.958 -71.507)" fill="none" stroke="#000" stroke-linecap="round" stroke-linejoin="round" stroke-width="1.445"/><path d="M39.589,81.349a9.2,9.2,0,0,1,5.126.317" transform="translate(-38.524 -71.125)" fill="none" stroke="#000" stroke-linecap="round" stroke-linejoin="round" stroke-width="1.445"/><path d="M43.179,74.521a16.608,16.608,0,0,1,6.66.9" transform="translate(-38.881 -70.464)" fill="none" stroke="#000" stroke-linecap="round" stroke-linejoin="round" stroke-width="1.445"/><path d="M41.164,77.918a11.616,11.616,0,0,1,5.576.507" transform="translate(-38.68 -70.792)" fill="none" stroke="#000" stroke-linecap="round" stroke-linejoin="round" stroke-width="1.445"/><path d="M52.137,70.727c1.237-1.229,3.187-.761,4.26.662a8.39,8.39,0,0,1,1.259,5.48" transform="translate(-39.772 -70.02)" fill="none" stroke="#000" stroke-linecap="round" stroke-linejoin="round" stroke-width="1.445"/></g><path d="M15.249,110.209l9.591-1.662L30.576,120.2s-8.808,4.441-13.545,5.2c-6.067,1.18-10.188-3.007-9.378-8.863" transform="translate(-7.551 -16.487)" fill="none" stroke="#000" stroke-linecap="round" stroke-linejoin="round" stroke-width="1.445"/><line x1="8.326" y2="34.169" transform="translate(0.536 63.898)" fill="none" stroke="#000" stroke-linecap="round" stroke-linejoin="round" stroke-width="1.445"/><path d="M25.347,82.493c-1.078,7.281-1.177,8.879,1.416,15.767" transform="translate(-9.252 -13.893)" fill="none" stroke="#000" stroke-linecap="round" stroke-linejoin="round" stroke-width="1.445"/><path d="M19.99,85.349l2.342,4.917" transform="translate(-8.789 -14.178)" fill="none" stroke="#000" stroke-linecap="round" stroke-linejoin="round" stroke-width="1.445"/><path d="M69.658,82.493c.577,3.895.94,5.763.71,7.987" transform="translate(-13.733 -13.893)" fill="none" stroke="#000" stroke-linecap="round" stroke-linejoin="round" stroke-width="1.445"/><path d="M74.835,85.349l-2.342,4.917" transform="translate(-14.015 -14.178)" fill="none" stroke="#000" stroke-linecap="round" stroke-linejoin="round" stroke-width="1.445"/><line x2="0.001" y2="3.415" transform="translate(17.51 107.108)" fill="none" stroke="#000" stroke-linecap="round" stroke-linejoin="round" stroke-width="1.445"/><line x2="0.004" y2="8.258" transform="translate(17.506 84.395)" fill="none" stroke="#000" stroke-linecap="round" stroke-linejoin="round" stroke-width="1.445"/><line x1="0.003" y2="11.02" transform="translate(54.888 99.577)" fill="none" stroke="#000" stroke-linecap="round" stroke-linejoin="round" stroke-width="1.445"/><path d="M63.038,83.442,53.852,93.9s9.889,14.839,15.383,22.551c2.429,3.411,6.745,5.416,10.763,1.671,4.366-4.068,1.515-9.907-.038-12.039-3.822-5.245-16.923-22.639-16.923-22.639Z" transform="translate(-12.16 -13.988)" fill="none" stroke="#000" stroke-linecap="round" stroke-linejoin="round" stroke-width="1.445"/><line x2="5" y2="29.589" transform="translate(64.401 64.911)" fill="none" stroke="#000" stroke-linecap="round" stroke-linejoin="round" stroke-width="1.445"/><path d="M37.517,60.31s8.052,4.063,18.432-.022" transform="translate(-10.534 -11.683)" fill="none" stroke="#000" stroke-linecap="round" stroke-linejoin="round" stroke-width="1.445"/><path d="M67.057,39.862c.069,5.619.295,10.71.16,16.328a10.034,10.034,0,0,1-1.785,5.543" transform="translate(-13.312 -9.65)" fill="none" stroke="#000" stroke-linecap="round" stroke-linejoin="round" stroke-width="1.445"/><path d="M53.964,15.841c-.815-.974-2.9-2.261-7.55-1.894-6.843.54-11.03,8.226-11.494,11.87-.91,7.148-.52,24.916-.52,24.916s-.225,7.9,9.58,8.533" transform="translate(-10.215 -7.065)" fill="none" stroke="#000" stroke-linecap="round" stroke-linejoin="round" stroke-width="1.445"/><path d="M57.569,18.416a19.059,19.059,0,0,0,5.674,8.226" transform="translate(-12.53 -7.516)" fill="none" stroke="#000" stroke-linecap="round" stroke-linejoin="round" stroke-width="1.445"/><circle cx="2.324" cy="2.324" r="2.324" transform="translate(50.971 30.301)" fill="#fff" stroke="#000" stroke-linecap="round" stroke-linejoin="round" stroke-width="1.445"/><g transform="translate(17.506)"><path d="M60.832,12.221c3.57.749,6.853,7.235,6.023,13.431" transform="translate(-30.361 -6.899)" fill="none" stroke="#000" stroke-linecap="round" stroke-linejoin="round" stroke-width="1.445"/><path d="M57.464,11.633c-3.786-6-13.735-6.314-19.107-3.943-8.24,3.637-11.112,10.671-11.364,17.749" transform="translate(-26.993 -6.311)" fill="none" stroke="#000" stroke-linecap="round" stroke-linejoin="round" stroke-width="1.445"/></g><path d="M26.933,30.4s-.26,15.827-.52,21.55c-.584,12.822,10.3,13.478,16.6,9.015" transform="translate(-9.426 -8.708)" fill="none" stroke="#000" stroke-linecap="round" stroke-linejoin="round" stroke-width="1.445"/><path d="M35.474,60.386c-7.036,3.768-5.992,3.844-5.992,3.844l2.627,1.731,3.819.5,4.1-.728,2.827-1.657L41.2,63.579h-.5l-1.975-.758L37.588,62l-1.026-.594Z" transform="translate(-9.729 -11.693)"/></g></g><g transform="translate(0.722 0.722)"><g transform="translate(3.399 5.083)"><ellipse cx="2.039" cy="1.017" rx="2.039" ry="1.017" transform="matrix(0.951, -0.308, 0.308, 0.951, 9.779, 19.116)" fill="#fff" stroke="#231815" stroke-miterlimit="10" stroke-width="1.445"/><g transform="translate(0)"><circle cx="6.859" cy="6.859" r="6.859" transform="translate(0 13.17) rotate(-73.75)" fill="#fff" stroke="#231815" stroke-miterlimit="10" stroke-width="1.445"/><path d="M15.5,19.153c-.985.318-1.176-.5-1.495-1.486a1.874,1.874,0,0,1,3.565-1.154l1.456,4.5" transform="translate(-6.1 -7.978)" fill="none" stroke="#ffde3b" stroke-miterlimit="10" stroke-width="1.445"/><path d="M15.134,19.273c.985-.318.66-1.1.341-2.079a1.874,1.874,0,0,0-3.565,1.154l1.456,4.5" transform="translate(-5.785 -8.08)" fill="none" stroke="#ffde3b" stroke-miterlimit="10" stroke-width="1.445"/><path d="M20.755,26.883,14.8,28.81l-1.988-4.791,6.786-2.195Z" transform="translate(-5.933 -8.969)" fill="#fff" stroke="#231815" stroke-miterlimit="10" stroke-width="1.445"/><line y1="2.156" x2="6.663" transform="translate(7.545 14.552)" fill="none" stroke="#231815" stroke-miterlimit="10" stroke-width="1.445"/><line y1="2.156" x2="6.663" transform="translate(8.066 16.16)" fill="none" stroke="#231815" stroke-miterlimit="10" stroke-width="1.445"/></g></g><line x2="3.805" y2="1.79" transform="translate(0 6.085)" fill="none" stroke="#231815" stroke-linecap="round" stroke-miterlimit="10" stroke-width="1.445"/><line x2="2.53" y2="3.128" transform="translate(3.378 2.543)" fill="none" stroke="#231815" stroke-linecap="round" stroke-miterlimit="10" stroke-width="1.445"/><line x2="0.949" y2="4.088" transform="translate(7.565)" fill="none" stroke="#231815" stroke-linecap="round" stroke-miterlimit="10" stroke-width="1.445"/></g></g></g></g></svg>