<svg xmlns="http://www.w3.org/2000/svg" xmlns:xlink="http://www.w3.org/1999/xlink" width="70" height="70" viewBox="0 0 70 70"><defs><clipPath id="a"><rect width="70" height="70" transform="translate(640 1720)" fill="#9f9f9f"/></clipPath></defs><g transform="translate(-805 -1560)"><g transform="translate(165 -160)" clip-path="url(#a)"><g transform="translate(647 1735.147)"><path d="M55.8,60.626l-4.986-6.27V27.988a2.31,2.31,0,0,0-2.31-2.31H7.5a2.31,2.31,0,0,0-2.31,2.31V54.356L.2,60.626A.927.927,0,0,0,0,61.2v2.775A1.843,1.843,0,0,0,1.844,65.82H54.157A1.843,1.843,0,0,0,56,63.977V61.2A.922.922,0,0,0,55.8,60.626ZM8.447,28.937H47.553V51.1H8.447ZM33.263,63.628H22.737V60.842H33.263Z" transform="translate(0 -25.678)" fill="#1e5692"/><path d="M100.713,48.52a.478.478,0,0,0-.453-.388l-1.82-.072a6.471,6.471,0,0,0-1.168-1.76l.644-1.7a.483.483,0,0,0-.183-.568l-.963-.648a.479.479,0,0,0-.595.046L94.84,44.663a6.384,6.384,0,0,0-2.072-.42l-.75-1.661a.483.483,0,0,0-.529-.273l-1.139.223a.48.48,0,0,0-.388.452l-.071,1.821a6.427,6.427,0,0,0-1.761,1.168l-1.7-.644a.482.482,0,0,0-.567.182l-.649.963a.483.483,0,0,0,.045.6l1.238,1.337a6.459,6.459,0,0,0-.419,2.071l-1.66.75a.481.481,0,0,0-.273.529l.222,1.139a.48.48,0,0,0,.452.388l1.822.071a6.359,6.359,0,0,0,1.169,1.76l-.644,1.706a.481.481,0,0,0,.181.568l.962.647a.479.479,0,0,0,.595-.045l1.338-1.237a6.441,6.441,0,0,0,2.07.418l.752,1.661a.481.481,0,0,0,.53.273l1.139-.222a.482.482,0,0,0,.388-.452l.071-1.822a6.422,6.422,0,0,0,1.76-1.168l1.7.644a.48.48,0,0,0,.568-.182l.648-.961a.485.485,0,0,0-.045-.6l-1.238-1.337A6.426,6.426,0,0,0,99,50.938l1.661-.751a.481.481,0,0,0,.273-.53Zm-7.533,5.471a3.345,3.345,0,1,1,2.643-3.925A3.344,3.344,0,0,1,93.179,53.991Z" transform="translate(-58.153 -37.167)" fill="#1e5692"/><path d="M57.388,67.268,56.1,66.85a4.826,4.826,0,0,0-.481-1.5l.8-1.092a.358.358,0,0,0-.016-.443l-.559-.66a.359.359,0,0,0-.436-.085l-1.208.617a4.849,4.849,0,0,0-1.4-.72L52.6,61.629a.357.357,0,0,0-.323-.3l-.862-.071a.357.357,0,0,0-.369.248l-.418,1.29a4.814,4.814,0,0,0-1.5.481l-1.093-.8a.356.356,0,0,0-.443.017l-.659.558a.36.36,0,0,0-.086.436l.616,1.208a4.841,4.841,0,0,0-.718,1.4l-1.342.2a.357.357,0,0,0-.3.323l-.071.862a.357.357,0,0,0,.245.369l1.293.418a4.788,4.788,0,0,0,.481,1.5l-.8,1.093a.36.36,0,0,0,.016.444l.558.658a.36.36,0,0,0,.437.087l1.207-.616a4.832,4.832,0,0,0,1.4.717l.2,1.342a.359.359,0,0,0,.323.3l.863.07a.356.356,0,0,0,.368-.245l.418-1.293a4.765,4.765,0,0,0,1.5-.48l1.092.8a.361.361,0,0,0,.443-.015l.66-.56a.36.36,0,0,0,.087-.435L55.2,70.425a4.789,4.789,0,0,0,.718-1.4l1.342-.2a.358.358,0,0,0,.3-.323l.071-.862A.357.357,0,0,0,57.388,67.268Zm-6.281,3.063a2.785,2.785,0,1,1,3-2.549A2.787,2.787,0,0,1,51.107,70.331Z" transform="translate(-31.126 -50.268)" fill="#1e5692"/></g></g></g></svg>