<svg xmlns="http://www.w3.org/2000/svg" width="80.373" height="46.029" viewBox="0 0 80.373 46.029"><g transform="translate(-11.21 -8.052)"><path d="M19.806,12.33h-8.6l.573-3.659H34.035l-.572,3.659h-8.6L18.708,53.6H13.646Z" transform="translate(0 -0.107)" fill="#fff"/><path d="M36.953,38.534h4.823c-2.34,8.351-.192,12.221,4.967,12.221,4.536,0,8.07-2.376,8.739-8.418,1.289-11.949-16.713-6.11-15.328-23.082.621-7.4,5.634-11.2,12.463-11.2,8.547,0,12.463,4.48,9.359,14.121H57.439c2.244-7.6.192-10.863-4.679-10.863-3.772,0-7.019,2.376-7.545,7.4-1.289,11.745,17.334,6.178,15.376,23.082-1,8.623-5.874,12.288-13.7,12.288-9.073,0-13.227-4.888-9.932-15.547Z" transform="translate(-2.557)" fill="#fff"/><path d="M77.978,8.671H97.461l-.573,3.659H82.466L80.03,28.73H91.4l-.525,3.456H79.505L76.306,53.6H71.245Z" transform="translate(-5.877 -0.107)" fill="#fff"/><g transform="translate(24.863 8.564)"><rect width="8.017" height="3.7" transform="translate(0.577 0)" fill="#fe0000"/><path d="M38,12.369l-.577-3.7h1.156Z" transform="translate(-29.403 -8.671)" fill="#fe0000"/><path d="M28.3,8.671l-.577,3.7h1.156Z" transform="translate(-27.726 -8.671)" fill="#fe0000"/></g></g></svg>