<svg xmlns="http://www.w3.org/2000/svg" xmlns:xlink="http://www.w3.org/1999/xlink" width="70" height="70" viewBox="0 0 70 70"><defs><clipPath id="a"><rect width="70" height="70" transform="translate(500 1440)" fill="#9f9f9f"/></clipPath></defs><g transform="translate(-490 -1559)"><g transform="translate(-10 119)" clip-path="url(#a)"><g transform="translate(512.6 1451.9)"><path d="M41.234,0H4.266A4.266,4.266,0,0,0,0,4.266V41.234A4.266,4.266,0,0,0,4.266,45.5H41.234A4.266,4.266,0,0,0,45.5,41.234V4.266A4.266,4.266,0,0,0,41.234,0ZM39.516,3.11A1.688,1.688,0,1,1,37.828,4.8,1.689,1.689,0,0,1,39.516,3.11Zm-6.265,0A1.688,1.688,0,1,1,31.562,4.8,1.689,1.689,0,0,1,33.251,3.11Zm-6.265,0A1.688,1.688,0,1,1,25.3,4.8,1.689,1.689,0,0,1,26.986,3.11Zm14.96,38.124a.712.712,0,0,1-.711.711H4.266a.712.712,0,0,1-.711-.711V9.242H41.945Z" fill="#1e5692"/><rect width="10.598" height="2.231" transform="translate(9.307 17.307)" fill="#1e5692"/><rect width="36.52" height="2.231" transform="translate(4.685 31.73)" fill="#1e5692"/><rect width="8.367" height="8.367" transform="translate(28.797 18.187)" fill="#1e5692"/><path d="M33.652,71.294h1.322V69.063h-10.6v2.231h9.277Z" transform="translate(-15.068 -44.544)" fill="#1e5692"/></g></g></g></svg>